<?xml version="1.0" encoding="UTF-8"?>
<svg id="Layer_1" data-name="Layer 1" xmlns="http://www.w3.org/2000/svg" viewBox="0 0 294.756 111.614">
  <defs>
    <style>
      .cls-1 {
        fill: #00bcd4;
      }

      .cls-2 {
        fill: #e6e6e6;
      }
    </style>
  </defs>
  <path class="cls-1" d="M0,50.4c3.175-.264,5.571-1.124,7.193-2.579,1.62-1.454,2.431-3.406,2.431-5.854,0-2.778-.298-6.779-.893-12.005-.662-6.217-.992-10.748-.992-13.593,0-5.158,1.538-9.177,4.613-12.054C15.427,1.439,19.511,0,24.604,0h6.846v11.708h-4.167c-4.102,0-6.151,1.951-6.151,5.854,0,1.853.263,5.556.793,11.111.065.662.231,2.53.496,5.605.264,3.076.397,5.804.397,8.186,0,3.506-.86,6.416-2.58,8.73-1.721,2.315-4.333,3.804-7.838,4.465v.198c3.505.729,6.117,2.232,7.838,4.514,1.719,2.282,2.58,5.209,2.58,8.78,0,2.25-.133,4.911-.397,7.987-.265,3.075-.431,5.01-.496,5.804-.53,5.556-.793,9.227-.793,11.013,0,2.049.496,3.537,1.488,4.464.992.926,2.545,1.39,4.663,1.39h4.167v11.806h-6.846c-5.094,0-9.177-1.438-12.253-4.315-3.075-2.877-4.613-6.896-4.613-12.055,0-2.911.33-7.473.992-13.69.595-5.225.893-9.193.893-11.906,0-2.446-.811-4.397-2.431-5.854-1.622-1.454-4.018-2.314-7.193-2.579v-10.814Z"/>
  <path class="cls-2" d="M110.323,22.621v48.614c0,6.746-1.952,11.989-5.854,15.725-3.903,3.738-9.127,5.605-15.675,5.605-6.615,0-11.956-1.917-16.023-5.754-4.068-3.835-6.102-9.192-6.102-16.072h13.89c.065,2.977.777,5.292,2.133,6.944,1.354,1.654,3.323,2.48,5.903,2.48,2.513,0,4.431-.794,5.754-2.381,1.322-1.588,1.984-3.771,1.984-6.548V22.621h13.989Z"/>
  <path class="cls-2" d="M126.444,90.234c-1.622-1.554-2.431-3.488-2.431-5.804s.809-4.249,2.431-5.805c1.62-1.553,3.687-2.331,6.201-2.331,2.446,0,4.464.778,6.052,2.331,1.587,1.556,2.381,3.49,2.381,5.805s-.793,4.25-2.381,5.804c-1.587,1.555-3.606,2.331-6.052,2.331-2.515,0-4.581-.776-6.201-2.331Z"/>
  <path class="cls-2" d="M163.152,90.086c-3.869-1.653-6.929-4.034-9.177-7.144-2.25-3.108-3.407-6.779-3.473-11.013h14.882c.198,2.845,1.206,5.094,3.026,6.746,1.818,1.654,4.314,2.48,7.49,2.48,3.24,0,5.787-.776,7.639-2.331,1.852-1.554,2.779-3.588,2.779-6.102,0-2.05-.631-3.736-1.887-5.061-1.256-1.322-2.826-2.363-4.711-3.125-1.887-.76-4.482-1.603-7.789-2.529-4.498-1.323-8.152-2.63-10.963-3.919-2.812-1.29-5.226-3.24-7.242-5.854-2.019-2.612-3.026-6.102-3.026-10.468,0-4.1,1.024-7.672,3.076-10.715,2.049-3.041,4.926-5.373,8.631-6.994,3.704-1.62,7.938-2.431,12.7-2.431,7.143,0,12.945,1.736,17.41,5.209,4.465,3.472,6.928,8.318,7.393,14.534h-15.279c-.133-2.381-1.141-4.349-3.025-5.903-1.885-1.553-4.383-2.331-7.49-2.331-2.714,0-4.879.694-6.499,2.083-1.621,1.39-2.431,3.407-2.431,6.052,0,1.853.61,3.391,1.835,4.614,1.224,1.225,2.744,2.217,4.563,2.976,1.818.762,4.381,1.638,7.689,2.63,4.498,1.323,8.168,2.646,11.012,3.968,2.844,1.324,5.291,3.309,7.342,5.953,2.051,2.646,3.076,6.118,3.076,10.417,0,3.705-.959,7.144-2.877,10.318-1.92,3.175-4.73,5.705-8.434,7.59-3.705,1.885-8.102,2.827-13.195,2.827-4.828,0-9.177-.826-13.046-2.479Z"/>
  <path class="cls-2" d="M212.658,90.234c-1.621-1.554-2.431-3.488-2.431-5.804s.81-4.249,2.431-5.805c1.62-1.553,3.687-2.331,6.201-2.331,2.446,0,4.464.778,6.052,2.331,1.587,1.556,2.381,3.49,2.381,5.805s-.794,4.25-2.381,5.804c-1.588,1.555-3.605,2.331-6.052,2.331-2.515,0-4.581-.776-6.201-2.331Z"/>
  <path class="cls-1" d="M287.563,63.794c-1.622,1.456-2.431,3.407-2.431,5.854,0,2.713.297,6.682.893,11.906.66,6.218.992,10.779.992,13.69,0,5.159-1.538,9.178-4.613,12.055-3.076,2.877-7.16,4.315-12.253,4.315h-6.846v-11.806h4.167c2.116,0,3.671-.464,4.663-1.39.992-.927,1.488-2.415,1.488-4.464,0-1.786-.266-5.457-.794-11.013-.066-.794-.232-2.729-.496-5.804-.265-3.076-.396-5.737-.396-7.987,0-3.571.858-6.498,2.579-8.78,1.72-2.281,4.331-3.785,7.838-4.514v-.198c-3.507-.661-6.118-2.149-7.838-4.465-1.721-2.314-2.579-5.225-2.579-8.73,0-2.382.132-5.109.396-8.186.264-3.075.43-4.943.496-5.605.528-5.556.794-9.259.794-11.111,0-3.902-2.051-5.854-6.151-5.854h-4.167V0h6.846c5.093,0,9.177,1.439,12.253,4.316,3.075,2.877,4.613,6.896,4.613,12.054,0,2.845-.332,7.376-.992,13.593-.596,5.226-.893,9.227-.893,12.005,0,2.447.809,4.399,2.431,5.854,1.62,1.455,4.018,2.315,7.192,2.579v10.814c-3.175.265-5.572,1.125-7.192,2.579Z"/>
</svg>